<mxfile host="app.diagrams.net" agent="Mozilla/5.0 (Windows NT 10.0; Win64; x64) AppleWebKit/537.36 (KHTML, like Gecko) Chrome/136.0.0.0 Safari/537.36" version="27.0.3">
  <diagram name="第 1 页" id="oMmt0x0N958NhFwZkaEd">
    <mxGraphModel dx="689" dy="368" grid="1" gridSize="10" guides="1" tooltips="1" connect="1" arrows="1" fold="1" page="1" pageScale="1" pageWidth="827" pageHeight="1169" math="0" shadow="0">
      <root>
        <mxCell id="0" />
        <mxCell id="1" parent="0" />
        <mxCell id="m_9CfHGxEuzI-a2oJDmN-1" value="" style="rounded=0;whiteSpace=wrap;html=1;" vertex="1" parent="1">
          <mxGeometry x="240" y="480" width="360" height="200" as="geometry" />
        </mxCell>
        <mxCell id="m_9CfHGxEuzI-a2oJDmN-3" value="输入链接" style="rounded=0;whiteSpace=wrap;html=1;" vertex="1" parent="1">
          <mxGeometry x="270" y="525" width="180" height="60" as="geometry" />
        </mxCell>
        <mxCell id="m_9CfHGxEuzI-a2oJDmN-4" value="缩短&lt;div&gt;按钮&lt;/div&gt;" style="rounded=1;whiteSpace=wrap;html=1;" vertex="1" parent="1">
          <mxGeometry x="490" y="540" width="66" height="40" as="geometry" />
        </mxCell>
        <mxCell id="m_9CfHGxEuzI-a2oJDmN-5" value="" style="rounded=0;whiteSpace=wrap;html=1;dashed=1;fillColor=#d5e8d4;strokeColor=#82b366;" vertex="1" parent="1">
          <mxGeometry x="270" y="600" width="290" height="60" as="geometry" />
        </mxCell>
        <mxCell id="m_9CfHGxEuzI-a2oJDmN-6" value="短链接" style="rounded=0;whiteSpace=wrap;html=1;fillColor=#d5e8d4;strokeColor=#82b366;" vertex="1" parent="1">
          <mxGeometry x="280" y="610" width="200" height="40" as="geometry" />
        </mxCell>
        <mxCell id="m_9CfHGxEuzI-a2oJDmN-7" value="复制&lt;div&gt;按钮&lt;/div&gt;" style="rounded=0;whiteSpace=wrap;html=1;fillColor=#d5e8d4;strokeColor=#82b366;" vertex="1" parent="1">
          <mxGeometry x="480" y="610" width="70" height="40" as="geometry" />
        </mxCell>
        <mxCell id="m_9CfHGxEuzI-a2oJDmN-8" value="成功缩短连接后显示" style="text;html=1;align=center;verticalAlign=middle;resizable=0;points=[];autosize=1;strokeColor=#82b366;fillColor=#d5e8d4;" vertex="1" parent="1">
          <mxGeometry x="370" y="690" width="130" height="30" as="geometry" />
        </mxCell>
      </root>
    </mxGraphModel>
  </diagram>
</mxfile>
